<svg width="27" height="20" viewBox="0 0 27 20" fill="none" xmlns="http://www.w3.org/2000/svg">
    <path d="M10 20C10 18.6868 9.74134 17.3864 9.2388 16.1732C8.73625 14.9599 7.99965 13.8575 7.07107 12.9289C6.14248 12.0003 5.04009 11.2638 3.82683 10.7612C2.61358 10.2587 1.31322 10 0 10L1.70437e-07 13.8992C0.801175 13.8992 1.5945 14.057 2.33469 14.3636C3.07488 14.6701 3.74743 15.1195 4.31395 15.686C4.88047 16.2526 5.32985 16.9251 5.63645 17.6653C5.94305 18.4055 6.10085 19.1988 6.10085 20H10Z" fill="white"/>
    <path d="M6.19995 20C6.19995 14.6957 8.30709 9.60859 12.0578 5.85786C15.8085 2.10714 20.8956 -6.32535e-08 26.2 0V3.7506C21.8903 3.7506 17.7572 5.46259 14.7099 8.50994C11.6625 11.5573 9.95055 15.6904 9.95055 20H6.19995Z" fill="white"/>
</svg>
