<svg width="30" height="21" viewBox="0 0 30 21" fill="none" xmlns="http://www.w3.org/2000/svg">
    <path d="M11.0049 4.39024C11.0049 6.81491 9.0393 8.78049 6.61463 8.78049C4.18997 8.78049 2.22439 6.81491 2.22439 4.39024C2.22439 1.96558 4.18997 0 6.61463 0C9.0393 0 11.0049 1.96558 11.0049 4.39024Z" fill="white" fill-opacity="0.9"/>
    <path d="M13.1707 17.0634C13.1707 14.8666 12.4769 12.7599 11.2419 11.2065C10.0069 9.65315 8.33191 8.78049 6.58537 8.78049C4.83882 8.78049 3.16381 9.65315 1.92881 11.2065C0.693814 12.7598 2.63721e-07 14.8666 0 17.0634L13.1707 17.0634Z" fill="white" fill-opacity="0.9"/>
    <path d="M27.8341 4.39024C27.8341 6.81491 25.8686 8.78049 23.4439 8.78049C21.0192 8.78049 19.0537 6.81491 19.0537 4.39024C19.0537 1.96558 21.0192 0 23.4439 0C25.8686 0 27.8341 1.96558 27.8341 4.39024Z" fill="white" fill-opacity="0.9"/>
    <path d="M30 17.0634C30 14.8666 29.3062 12.7599 28.0712 11.2065C26.8362 9.65315 25.1612 8.78049 23.4146 8.78049C21.6681 8.78049 19.9931 9.65315 18.7581 11.2065C17.5231 12.7598 16.8293 14.8666 16.8293 17.0634L30 17.0634Z" fill="white" fill-opacity="0.9"/>
    <path d="M19.4341 7.49268C19.4341 9.91735 17.4686 11.8829 15.0439 11.8829C12.6192 11.8829 10.6537 9.91735 10.6537 7.49268C10.6537 5.06802 12.6192 3.10244 15.0439 3.10244C17.4686 3.10244 19.4341 5.06802 19.4341 7.49268Z" fill="white"/>
    <path d="M21.6 20.1659C21.6 17.9691 20.9062 15.8623 19.6712 14.3089C18.4362 12.7556 16.7612 11.8829 15.0146 11.8829C13.2681 11.8829 11.5931 12.7556 10.3581 14.3089C9.12308 15.8623 8.42927 17.9691 8.42927 20.1659L21.6 20.1659Z" fill="white"/>
</svg>
