<svg width="38" height="30" viewBox="0 0 38 30" fill="none" xmlns="http://www.w3.org/2000/svg">
    <path d="M37.7071 15.7071C38.0976 15.3166 38.0976 14.6834 37.7071 14.2929L31.3431 7.92893C30.9526 7.53841 30.3195 7.53841 29.9289 7.92893C29.5384 8.31946 29.5384 8.95262 29.9289 9.34315L35.5858 15L29.9289 20.6569C29.5384 21.0474 29.5384 21.6805 29.9289 22.0711C30.3195 22.4616 30.9526 22.4616 31.3431 22.0711L37.7071 15.7071ZM12 16H37V14H12V16Z"
          fill="#D9D9D9"/>
    <path fill-rule="evenodd" clip-rule="evenodd"
          d="M7 3H17C19.2091 3 21 4.79086 21 7V8H24V7C24 3.13401 20.866 0 17 0H7C3.13401 0 0 3.13401 0 7V23C0 26.866 3.13401 30 7 30H17C20.866 30 24 26.866 24 23H21C21 25.2091 19.2091 27 17 27H7C4.79086 27 3 25.2091 3 23V7C3 4.79086 4.79086 3 7 3Z"
          fill="#D9D9D9"/>
</svg>
