<svg width="150" height="150" viewBox="0 0 150 150" fill="none" xmlns="http://www.w3.org/2000/svg">
    <circle cx="75" cy="75" r="75" fill="#7EAA92"/>
    <path d="M31 59C34.9397 59 38.8407 58.224 42.4805 56.7164C46.1203 55.2087 49.4274 52.999 52.2132 50.2132C54.999 47.4274 57.2087 44.1203 58.7164 40.4805C60.224 36.8407 61 32.9397 61 29L49.3025 29C49.3025 31.4035 48.8291 33.7835 47.9093 36.0041C46.9896 38.2246 45.6414 40.2423 43.9419 41.9419C42.2423 43.6414 40.2246 44.9896 38.0041 45.9093C35.7835 46.8291 33.4035 47.3025 31 47.3025V59Z" fill="white"/>
    <path d="M31 47.5999C46.913 47.5999 62.1742 53.9213 73.4264 65.1734C84.6786 76.4256 91 91.6869 91 107.6H79.7482C79.7482 94.671 74.6122 82.2717 65.4702 73.1297C56.3281 63.9876 43.9288 58.8517 31 58.8517L31 47.5999Z" fill="white"/>
    <path d="M43.9998 94.5004C43.9998 91.6084 42.997 88.806 41.1624 86.5704C39.3278 84.3349 36.7748 82.8047 33.9384 82.2406C31.102 81.6764 28.1578 82.1131 25.6073 83.4763C23.0568 84.8396 21.058 87.045 19.9513 89.7168C18.8446 92.3886 18.6985 95.3615 19.538 98.1289C20.3775 100.896 22.1506 103.287 24.5551 104.894C26.9597 106.5 29.847 107.224 32.725 106.94C35.603 106.657 38.2937 105.384 40.3386 103.339L31.4998 94.5004H43.9998Z" fill="white"/>
    <circle cx="34.9998" cy="88.0004" r="1" fill="#7EAA92"/>
    <path d="M108.321 101.755C110.056 104.189 112.604 105.92 115.506 106.636C118.407 107.352 121.469 107.005 124.136 105.657C126.803 104.31 128.9 102.052 130.045 99.2918C131.191 96.5318 131.309 93.4528 130.38 90.6127C129.451 87.7726 127.535 85.3594 124.979 83.8104C122.424 82.2614 119.398 81.6792 116.45 82.1692C113.503 82.6592 110.828 84.189 108.911 86.4814C106.994 88.7738 105.962 91.6771 106.001 94.6651L118.5 94.5L108.321 101.755Z" fill="white"/>
    <circle cx="115" cy="88" r="1" fill="#7EAA92"/>
</svg>
