<svg width="40" height="40" viewBox="0 0 40 40" fill="none" xmlns="http://www.w3.org/2000/svg">
    <circle cx="20" cy="20" r="20" fill="#7EAA92"/>
    <path d="M8.2666 15.7333C9.31718 15.7333 10.3575 15.5264 11.3281 15.1243C12.2987 14.7223 13.1806 14.133 13.9235 13.3901C14.6663 12.6473 15.2556 11.7653 15.6576 10.7947C16.0597 9.82414 16.2666 8.78385 16.2666 7.73328L13.1473 7.73328C13.1473 8.37422 13.021 9.00888 12.7758 9.60103C12.5305 10.1932 12.171 10.7312 11.7178 11.1844C11.2645 11.6377 10.7265 11.9972 10.1344 12.2424C9.54221 12.4877 8.90754 12.614 8.2666 12.614V15.7333Z" fill="white"/>
    <path d="M8.2666 12.6932C12.5101 12.6932 16.5797 14.3789 19.5803 17.3795C22.5809 20.3801 24.2666 24.4498 24.2666 28.6932H21.2661C21.2661 25.2456 19.8965 21.9391 17.4586 19.5012C15.0208 17.0633 11.7143 15.6937 8.2666 15.6937L8.2666 12.6932Z" fill="white"/>
    <path d="M11.7333 25.2C11.7333 24.4288 11.4659 23.6815 10.9767 23.0854C10.4875 22.4893 9.80665 22.0812 9.05028 21.9307C8.29392 21.7803 7.50878 21.8968 6.82866 22.2603C6.14854 22.6238 5.6155 23.2119 5.32039 23.9244C5.02527 24.6369 4.98632 25.4297 5.21018 26.1676C5.43405 26.9056 5.90687 27.5431 6.54808 27.9716C7.1893 28.4 7.95924 28.5929 8.72671 28.5173C9.49418 28.4417 10.2117 28.1024 10.757 27.5571L8.39998 25.2H11.7333Z" fill="white"/>
    <circle cx="9.33332" cy="23.4667" r="0.266667" fill="#7EAA92"/>
    <path d="M28.8856 27.1348C29.3481 27.7837 30.0278 28.2454 30.8015 28.4363C31.5752 28.6272 32.3916 28.5346 33.1029 28.1753C33.8142 27.816 34.3732 27.2138 34.6787 26.4778C34.9842 25.7418 35.0159 24.9208 34.768 24.1634C34.5202 23.4061 34.0093 22.7625 33.3278 22.3495C32.6464 21.9364 31.8395 21.7812 31.0534 21.9118C30.2673 22.0425 29.5541 22.4504 29.0429 23.0617C28.5317 23.673 28.2564 24.4472 28.267 25.244L31.6 25.2L28.8856 27.1348Z" fill="white"/>
    <circle cx="30.6666" cy="23.4666" r="0.266667" fill="#7EAA92"/>
</svg>
